<mxfile host="65bd71144e">
    <diagram id="kTJ9cbFfdxzQ68qTynHD" name="Page-1">
        <mxGraphModel dx="449" dy="530" grid="1" gridSize="10" guides="1" tooltips="1" connect="1" arrows="1" fold="1" page="1" pageScale="1" pageWidth="827" pageHeight="1169" math="0" shadow="0">
            <root>
                <mxCell id="0"/>
                <mxCell id="1" parent="0"/>
                <mxCell id="2" value="bus&lt;br&gt;" style="rounded=0;whiteSpace=wrap;html=1;" vertex="1" parent="1">
                    <mxGeometry x="40" y="80" width="120" height="60" as="geometry"/>
                </mxCell>
                <mxCell id="7" value="" style="endArrow=none;html=1;entryX=0.5;entryY=1;entryDx=0;entryDy=0;" edge="1" parent="1" target="2">
                    <mxGeometry width="50" height="50" relative="1" as="geometry">
                        <mxPoint x="100" y="600" as="sourcePoint"/>
                        <mxPoint x="130" y="140" as="targetPoint"/>
                    </mxGeometry>
                </mxCell>
                <mxCell id="8" value="central server&lt;br&gt;" style="rounded=0;whiteSpace=wrap;html=1;" vertex="1" parent="1">
                    <mxGeometry x="200" y="80" width="120" height="60" as="geometry"/>
                </mxCell>
                <mxCell id="9" value="" style="endArrow=none;html=1;entryX=0.5;entryY=1;entryDx=0;entryDy=0;" edge="1" parent="1" target="8">
                    <mxGeometry width="50" height="50" relative="1" as="geometry">
                        <mxPoint x="260" y="600" as="sourcePoint"/>
                        <mxPoint x="290" y="140" as="targetPoint"/>
                    </mxGeometry>
                </mxCell>
                <mxCell id="10" value="end clients&lt;br&gt;" style="rounded=0;whiteSpace=wrap;html=1;" vertex="1" parent="1">
                    <mxGeometry x="500" y="80" width="120" height="60" as="geometry"/>
                </mxCell>
                <mxCell id="11" value="" style="endArrow=none;html=1;entryX=0.5;entryY=1;entryDx=0;entryDy=0;" edge="1" parent="1" target="10">
                    <mxGeometry width="50" height="50" relative="1" as="geometry">
                        <mxPoint x="560" y="600" as="sourcePoint"/>
                        <mxPoint x="590" y="140" as="targetPoint"/>
                    </mxGeometry>
                </mxCell>
                <mxCell id="12" value="database" style="rounded=0;whiteSpace=wrap;html=1;" vertex="1" parent="1">
                    <mxGeometry x="354" y="80" width="120" height="60" as="geometry"/>
                </mxCell>
                <mxCell id="13" value="" style="endArrow=none;html=1;entryX=0.5;entryY=1;entryDx=0;entryDy=0;" edge="1" parent="1" target="12">
                    <mxGeometry width="50" height="50" relative="1" as="geometry">
                        <mxPoint x="414" y="600" as="sourcePoint"/>
                        <mxPoint x="444" y="140" as="targetPoint"/>
                    </mxGeometry>
                </mxCell>
                <mxCell id="14" value="" style="endArrow=classic;html=1;" edge="1" parent="1">
                    <mxGeometry width="50" height="50" relative="1" as="geometry">
                        <mxPoint x="100" y="180" as="sourcePoint"/>
                        <mxPoint x="260" y="180" as="targetPoint"/>
                    </mxGeometry>
                </mxCell>
                <mxCell id="15" value="regular updates" style="edgeLabel;html=1;align=center;verticalAlign=middle;resizable=0;points=[];" vertex="1" connectable="0" parent="14">
                    <mxGeometry x="-0.2" y="-1" relative="1" as="geometry">
                        <mxPoint y="-11" as="offset"/>
                    </mxGeometry>
                </mxCell>
                <mxCell id="17" value="" style="endArrow=classic;html=1;" edge="1" parent="1">
                    <mxGeometry width="50" height="50" relative="1" as="geometry">
                        <mxPoint x="260" y="220" as="sourcePoint"/>
                        <mxPoint x="410" y="220" as="targetPoint"/>
                    </mxGeometry>
                </mxCell>
                <mxCell id="18" value="save the data in DB" style="text;html=1;align=center;verticalAlign=middle;resizable=0;points=[];autosize=1;strokeColor=none;fillColor=none;" vertex="1" parent="1">
                    <mxGeometry x="280" y="200" width="120" height="20" as="geometry"/>
                </mxCell>
                <mxCell id="19" value="" style="endArrow=classic;html=1;" edge="1" parent="1">
                    <mxGeometry width="50" height="50" relative="1" as="geometry">
                        <mxPoint x="260" y="300" as="sourcePoint"/>
                        <mxPoint x="560" y="300" as="targetPoint"/>
                    </mxGeometry>
                </mxCell>
                <mxCell id="20" value="push updates to subscribers" style="edgeLabel;html=1;align=center;verticalAlign=middle;resizable=0;points=[];" vertex="1" connectable="0" parent="19">
                    <mxGeometry x="-0.1867" y="-5" relative="1" as="geometry">
                        <mxPoint x="98" y="-15" as="offset"/>
                    </mxGeometry>
                </mxCell>
            </root>
        </mxGraphModel>
    </diagram>
</mxfile>